<svg width="161" height="27" viewBox="0 0 161 27" fill="none" xmlns="http://www.w3.org/2000/svg">
<path d="M46.24 10.372C46.24 8.788 46.72 7.556 47.68 6.676C48.64 5.796 49.968 5.356 51.664 5.356C53.376 5.356 55.136 5.516 56.944 5.836L56.392 10.06C54.392 9.66 53.08 9.46 52.456 9.46C51.832 9.46 51.52 9.652 51.52 10.036C51.52 10.18 51.568 10.284 51.664 10.348C51.76 10.396 51.832 10.436 51.88 10.468C51.928 10.5 52.016 10.54 52.144 10.588C52.288 10.636 52.4 10.684 52.48 10.732C52.576 10.764 52.864 10.884 53.344 11.092C53.84 11.284 54.208 11.444 54.448 11.572C54.704 11.684 55.048 11.876 55.48 12.148C56.728 12.964 57.352 14.164 57.352 15.748C57.352 17.332 56.88 18.564 55.936 19.444C54.992 20.308 53.632 20.74 51.856 20.74C50.096 20.74 48.368 20.524 46.672 20.092L47.008 16.036C49.152 16.58 50.6 16.852 51.352 16.852C51.848 16.852 52.096 16.676 52.096 16.324C52.096 16.164 52.032 16.036 51.904 15.94C51.792 15.844 51.616 15.74 51.376 15.628C51.152 15.516 50.816 15.372 50.368 15.196C49.92 15.004 49.544 14.844 49.24 14.716C48.936 14.572 48.576 14.356 48.16 14.068C46.88 13.188 46.24 11.956 46.24 10.372ZM65.0896 20.74C64.4976 20.74 63.9056 20.628 63.3136 20.404V23.788H58.3216V9.004H62.4496L62.6416 9.532C63.3936 8.988 64.2976 8.716 65.3536 8.716C67.0816 8.716 68.2496 9.164 68.8576 10.06C69.4656 10.94 69.7696 12.452 69.7696 14.596C69.7696 16.724 69.4416 18.284 68.7856 19.276C68.1296 20.252 66.8976 20.74 65.0896 20.74ZM64.0336 17.332C64.3696 17.332 64.5776 17.156 64.6576 16.804C64.7376 16.436 64.7776 15.804 64.7776 14.908C64.7776 13.996 64.7296 13.356 64.6336 12.988C64.5376 12.604 64.3296 12.412 64.0096 12.412C63.8016 12.412 63.5536 12.476 63.2656 12.604V17.236C63.5536 17.3 63.8096 17.332 64.0336 17.332ZM70.5006 14.716C70.5006 12.604 70.9646 11.076 71.8926 10.132C72.8366 9.188 74.3006 8.716 76.2846 8.716C78.2846 8.716 79.7406 9.18 80.6526 10.108C81.5646 11.036 82.0206 12.564 82.0206 14.692C82.0206 16.804 81.5726 18.34 80.6766 19.3C79.7966 20.26 78.3406 20.74 76.3086 20.74C74.2926 20.74 72.8206 20.26 71.8926 19.3C70.9646 18.34 70.5006 16.812 70.5006 14.716ZM76.9086 12.676C76.8286 12.388 76.6206 12.244 76.2846 12.244C75.9486 12.244 75.7326 12.388 75.6366 12.676C75.5566 12.948 75.5166 13.54 75.5166 14.452V15.028C75.5166 16.052 75.5566 16.716 75.6366 17.02C75.7326 17.308 75.9486 17.452 76.2846 17.452C76.6206 17.452 76.8286 17.308 76.9086 17.02C77.0046 16.716 77.0526 16.092 77.0526 15.148V14.476C77.0526 13.548 77.0046 12.948 76.9086 12.676ZM88.087 14.068V20.5H83.143V9.004H87.415L87.559 9.772H87.655C88.039 9.42 88.479 9.18 88.975 9.052C89.471 8.908 90.199 8.836 91.159 8.836L91.015 12.82H89.383C88.903 12.82 88.567 12.908 88.375 13.084C88.183 13.26 88.087 13.588 88.087 14.068ZM96.3653 20.74C95.1173 20.74 94.1973 20.508 93.6053 20.044C93.0293 19.564 92.7413 18.748 92.7413 17.596V12.388H91.4693V9.148H92.9813L93.2933 7.012H97.7333V9.148H99.9173V12.388H97.7093V16.828C97.7093 17.036 97.8053 17.14 97.9973 17.14C98.0133 17.14 98.6453 17.108 99.8933 17.044L99.7493 20.5C98.1493 20.66 97.0213 20.74 96.3653 20.74ZM109.762 16.924C109.762 19.468 108.282 20.74 105.322 20.74C103.786 20.74 102.298 20.572 100.858 20.236L101.17 16.708C103.17 17.188 104.498 17.428 105.154 17.428C105.378 17.428 105.49 17.356 105.49 17.212C105.49 17.068 105.362 16.948 105.106 16.852C103.458 16.292 102.258 15.7 101.506 15.076C100.754 14.452 100.378 13.556 100.378 12.388C100.378 11.22 100.786 10.316 101.602 9.676C102.434 9.036 103.546 8.716 104.938 8.716C106.346 8.716 107.89 8.876 109.57 9.196L109.066 12.82C106.954 12.404 105.674 12.196 105.226 12.196C105.018 12.196 104.914 12.276 104.914 12.436C104.914 12.564 105.05 12.676 105.322 12.772C106.65 13.204 107.61 13.636 108.202 14.068C108.794 14.484 109.202 14.916 109.426 15.364C109.65 15.812 109.762 16.332 109.762 16.924ZM127.098 20.5H122.562V13.396H122.442L121.026 20.5H116.826L115.434 13.396H115.314V20.5H110.826L111.402 5.596H117.786L118.914 12.34H119.13L120.234 5.596H126.546L127.098 20.5ZM138.88 12.1L138.736 16.9C138.736 17.124 138.816 17.276 138.976 17.356C139.152 17.42 139.456 17.452 139.888 17.452L139.432 20.644C138.472 20.708 137.824 20.74 137.488 20.74C136.32 20.74 135.472 20.428 134.944 19.804H134.776C134.008 20.428 133.04 20.74 131.872 20.74C130.72 20.74 129.84 20.436 129.232 19.828C128.64 19.204 128.344 18.348 128.344 17.26C128.344 15.916 128.792 14.98 129.688 14.452C130.6 13.924 132.04 13.588 134.008 13.444V13.012C134.008 12.724 133.856 12.58 133.552 12.58C132.736 12.58 131.336 12.828 129.352 13.324L128.608 9.532C130.896 8.988 132.864 8.716 134.512 8.716C136.16 8.716 137.296 8.988 137.92 9.532C138.56 10.076 138.88 10.932 138.88 12.1ZM133.456 17.644C133.92 17.644 134.152 17.404 134.152 16.924V16.012C133.32 16.124 132.904 16.444 132.904 16.972C132.904 17.42 133.088 17.644 133.456 17.644ZM144.904 20.74C143.656 20.74 142.736 20.508 142.144 20.044C141.568 19.564 141.28 18.748 141.28 17.596V12.388H140.008V9.148H141.52L141.832 7.012H146.272V9.148H148.456V12.388H146.248V16.828C146.248 17.036 146.344 17.14 146.536 17.14C146.552 17.14 147.184 17.108 148.432 17.044L148.288 20.5C146.688 20.66 145.56 20.74 144.904 20.74ZM154.965 12.58C154.629 12.58 154.397 12.684 154.269 12.892C154.141 13.1 154.077 13.42 154.077 13.852H155.805V13.468C155.805 12.876 155.525 12.58 154.965 12.58ZM149.133 14.716C149.133 12.812 149.629 11.34 150.621 10.3C151.629 9.244 153.101 8.716 155.037 8.716C156.989 8.716 158.365 9.116 159.165 9.916C159.981 10.716 160.389 11.86 160.389 13.348C160.389 13.94 160.325 14.836 160.197 16.036H154.173C154.237 16.9 154.765 17.332 155.757 17.332C156.221 17.332 157.437 17.164 159.405 16.828L159.813 20.068C158.117 20.516 156.533 20.74 155.061 20.74C153.141 20.74 151.669 20.212 150.645 19.156C149.637 18.1 149.133 16.62 149.133 14.716Z" fill="white"/>
<circle cx="9.94824" cy="13" r="9.5" fill="#FEB800"/>
<circle cx="19.4481" cy="13" r="9.5" fill="#263AE2"/>
<circle cx="29.6789" cy="13" r="9.5" fill="#FF5C2C"/>
</svg>
